{"title":"Knight.of.Cups.2015.BRRip.720p.x264.AAC-PRiSTiNE [P2PDL]","uid":13220689,"size":800844590,"categoryP":"video","categoryS":"hd___movies","magnet":"?xt=urn:btih:a495d1ffd579564b5e282e3f1a5e3041cd5f6213&amp;dn=Knight.of.Cups.2015.BRRip.720p.x264.AAC-PRiSTiNE+%5BP2PDL%5D&amp;tr=udp%3A%2F%2Ftracker.leechers-paradise.org%3A6969&amp;tr=udp%3A%2F%2Fzer0day.ch%3A1337&amp;tr=udp%3A%2F%2Fopen.demonii.com%3A1337&amp;tr=udp%3A%2F%2Ftracker.coppersurfer.tk%3A6969&amp;tr=udp%3A%2F%2Fexodus.desync.com%3A6969","seeders":0,"leechers":2,"uploader":"VYTOP2PDL","files":7,"time":1452767724,"description":"Knight.of.Cups.2015.BRRip.720p.x264.AAC-PRiSTiNE\r\n\r\n\r\nGenre: Drama, Romance \nhttp://www.imdb.com/title/tt2101383/\r\n\r\n\r\nFormat                                   : MPEG-4\r\nFile size                                : 750 MiB\r\nDuration                                 : 1h 58mn\r\nOverall bit rate                         : 886 Kbps\r\n\r\nVideo\r\nFormat                                   : AVC\r\nBit rate                                 : 804 Kbps\r\nWidth                                    : 1 280 pixels\r\nHeight                                   : 544 pixels\r\nDisplay aspect ratio                     : 2.35:1\r\nFrame rate mode                          : Constant\r\nFrame rate                               : 23.976 fps\r\nBit depth                                : 8 bits\r\nStream size                              : 680 MiB (91%)\r\nWriting library                          : x264\r\n\r\nAudio\r\nFormat                                   : AAC\r\nBit rate mode                            : Variable\r\nBit rate                                 : 79.7 Kbps\r\nChannel(s)                               : 2 channels\r\nChannel positions                        : Front: L R\r\nSampling rate                            : 48.0 KHz\r\nStream size                              : 67.5 MiB (9%)\r\nLanguage                                 : English\r\n\r\nSubtitle                                 : N/a\r\n\r\nScreen Shots: (Click to view)\r\n \nhttp://ititli.com/z9 \nhttp://ititli.com/zX \nhttp://ititli.com/zq \nhttp://ititli.com/zr \nhttp://ititli.com/z1 \nhttp://ititli.com/zT \nhttp://ititli.com/zW \nhttp://ititli.com/zg \nhttp://ititli.com/zn\r\n\r\n----------------------------------------------------------------------------------------------------\r\n\r\n\r\nEncoder Notes: Looking For Early Access To Anything You Can Provide WEBDL, DVDScr, DVDR, BluRay,\r\nDirect Audio, Music Releases and Seedboxes. If You Got anything to offer please contact us.\r\n\r\nSupport us by donating BC - 1FgwdzPsd1y25Gea8wP1qni35uGCtmkRCD\r\n\r\nSend some love!\r\nFind us and join us!\r\n\r\nTry all new image sharing/hosting service at:              \nhttp://ititli.com/","torrent":{"xt":"urn:btih:a495d1ffd579564b5e282e3f1a5e3041cd5f6213","amp;dn":"Knight.of.Cups.2015.BRRip.720p.x264.AAC-PRiSTiNE+%5BP2PDL%5D","amp;tr":["udp%3A%2F%2Ftracker.leechers-paradise.org%3A6969","udp%3A%2F%2Fzer0day.ch%3A1337","udp%3A%2F%2Fopen.demonii.com%3A1337","udp%3A%2F%2Ftracker.coppersurfer.tk%3A6969","udp%3A%2F%2Fexodus.desync.com%3A6969"],"infoHash":"a495d1ffd579564b5e282e3f1a5e3041cd5f6213","infoHashBuffer":{"type":"Buffer","data":[164,149,209,255,213,121,86,75,94,40,46,63,26,94,48,65,205,95,98,19]},"announce":[],"urlList":[]}}